<svg width="43" height="38" viewBox="0 0 43 38" fill="none" xmlns="http://www.w3.org/2000/svg">
<path d="M5 13.5C5 14.8807 3.88071 16 2.5 16C1.11929 16 1.69631e-07 14.8807 1.09278e-07 13.5C4.89256e-08 12.1193 1.11929 11 2.5 11C3.88071 11 5 12.1193 5 13.5Z" fill="#575757"/>
<path d="M7 7.5C7 8.88071 5.88071 10 4.5 10C3.11929 10 2 8.88071 2 7.5C2 6.11929 3.11929 5 4.5 5C5.88071 5 7 6.11929 7 7.5Z" fill="#575757"/>
<path d="M12 3.5C12 4.88071 10.8807 6 9.5 6C8.11929 6 7 4.88071 7 3.5C7 2.11929 8.11929 1 9.5 1C10.8807 1 12 2.11929 12 3.5Z" fill="#575757"/>
<path d="M18 2.5C18 3.88071 16.8807 5 15.5 5C14.1193 5 13 3.88071 13 2.5C13 1.11929 14.1193 -4.89256e-08 15.5 -1.09278e-07C16.8807 -1.69631e-07 18 1.11929 18 2.5Z" fill="#575757"/>
<circle cx="13.5" cy="13.5" r="7.5" fill="black"/>
<path d="M36.6374 20.605C36.1291 19.3213 36.7576 17.8685 38.0413 17.3601C39.3251 16.8518 40.7778 17.4803 41.2862 18.7641C41.7945 20.0478 41.166 21.5005 39.8823 22.0089C38.5985 22.5173 37.1458 21.8887 36.6374 20.605Z" fill="#575757"/>
<path d="M36.987 26.9199C36.4787 25.6361 37.1072 24.1834 38.3909 23.675C39.6747 23.1667 41.1274 23.7952 41.6358 25.0789C42.1441 26.3627 41.5156 27.8154 40.2319 28.3238C38.9481 28.8321 37.4954 28.2036 36.987 26.9199Z" fill="#575757"/>
<path d="M33.811 32.4798C33.3026 31.1961 33.9312 29.7433 35.2149 29.235C36.4986 28.7266 37.9514 29.3552 38.4598 30.6389C38.9681 31.9226 38.3396 33.3754 37.0558 33.8837C35.7721 34.3921 34.3193 33.7635 33.811 32.4798Z" fill="#575757"/>
<path d="M28.6006 35.6186C28.0923 34.3349 28.7208 32.8822 30.0046 32.3738C31.2883 31.8655 32.741 32.494 33.2494 33.7777C33.7578 35.0615 33.1292 36.5142 31.8455 37.0226C30.5618 37.5309 29.109 36.9024 28.6006 35.6186Z" fill="#575757"/>
<circle cx="28.7345" cy="23.7345" r="7.5" transform="rotate(158.396 28.7345 23.7345)" fill="black"/>
</svg>
