<svg width="30" height="22" viewBox="0 0 30 22" fill="none" xmlns="http://www.w3.org/2000/svg">
<path d="M0.744842 13.2448C0.744842 11.8641 1.86413 10.7448 3.24484 10.7448C4.62555 10.7448 5.74484 11.8641 5.74484 13.2448C5.74484 14.6255 4.62555 15.7448 3.24484 15.7448C1.86413 15.7448 0.744842 14.6255 0.744842 13.2448Z" fill="#575757"/>
<path d="M18 13.2448C18 11.8641 19.1193 10.7448 20.5 10.7448C21.8807 10.7448 23 11.8641 23 13.2448C23 14.6255 21.8807 15.7448 20.5 15.7448C19.1193 15.7448 18 14.6255 18 13.2448Z" fill="#575757"/>
<path d="M18 19.5C18 18.1193 19.1193 17 20.5 17C21.8807 17 23 18.1193 23 19.5C23 20.8807 21.8807 22 20.5 22C19.1193 22 18 20.8807 18 19.5Z" fill="#575757"/>
<path d="M7 13.2448C7 11.8641 8.11929 10.7448 9.5 10.7448C10.8807 10.7448 12 11.8641 12 13.2448C12 14.6255 10.8807 15.7448 9.5 15.7448C8.11929 15.7448 7 14.6255 7 13.2448Z" fill="#575757"/>
<path d="M1 19.5C1 18.1193 2.11929 17 3.5 17C4.88071 17 6 18.1193 6 19.5C6 20.8807 4.88071 22 3.5 22C2.11929 22 1 20.8807 1 19.5Z" fill="#575757"/>
<path d="M7.25516 19.5C7.25516 18.1193 8.37445 17 9.75516 17C11.1359 17 12.2552 18.1193 12.2552 19.5C12.2552 20.8807 11.1359 22 9.75516 22C8.37445 22 7.25516 20.8807 7.25516 19.5Z" fill="#575757"/>
<path d="M24.2552 13.2448C24.2552 11.8641 25.3744 10.7448 26.7552 10.7448C28.1359 10.7448 29.2552 11.8641 29.2552 13.2448C29.2552 14.6255 28.1359 15.7448 26.7552 15.7448C25.3744 15.7448 24.2552 14.6255 24.2552 13.2448Z" fill="#575757"/>
<path d="M24.2552 19.5C24.2552 18.1193 25.3744 17 26.7552 17C28.1359 17 29.2552 18.1193 29.2552 19.5C29.2552 20.8807 28.1359 22 26.7552 22C25.3744 22 24.2552 20.8807 24.2552 19.5Z" fill="#575757"/>
<rect width="30" height="6" fill="black"/>
</svg>
