<svg width="44" height="29" viewBox="0 0 44 29" fill="none" xmlns="http://www.w3.org/2000/svg">
<path d="M8 7H36C36.5523 7 37 7.44772 37 8V21C37 21.5523 36.5523 22 36 22H8C7.44771 22 7 21.5523 7 21V8C7 7.44772 7.44772 7 8 7Z" fill="black"/>
<path d="M13.5 29C12.1193 29 11 27.8807 11 26.5C11 25.1193 12.1193 24 13.5 24C14.8807 24 16 25.1193 16 26.5C16 27.8807 14.8807 29 13.5 29Z" fill="#575757"/>
<path d="M13.5 5C12.1193 5 11 3.88071 11 2.5C11 1.11929 12.1193 0 13.5 0C14.8807 0 16 1.11929 16 2.5C16 3.88071 14.8807 5 13.5 5Z" fill="#575757"/>
<path d="M2.5 13C1.11929 13 0 11.8807 0 10.5C0 9.11929 1.11929 8 2.5 8C3.88071 8 5 9.11929 5 10.5C5 11.8807 3.88071 13 2.5 13Z" fill="#575757"/>
<path d="M41.5 13C40.1193 13 39 11.8807 39 10.5C39 9.11929 40.1193 8 41.5 8C42.8807 8 44 9.11929 44 10.5C44 11.8807 42.8807 13 41.5 13Z" fill="#575757"/>
<path d="M2.5 21C1.11929 21 0 19.8807 0 18.5C0 17.1193 1.11929 16 2.5 16C3.88071 16 5 17.1193 5 18.5C5 19.8807 3.88071 21 2.5 21Z" fill="#575757"/>
<path d="M41.5 21C40.1193 21 39 19.8807 39 18.5C39 17.1193 40.1193 16 41.5 16C42.8807 16 44 17.1193 44 18.5C44 19.8807 42.8807 21 41.5 21Z" fill="#575757"/>
<path d="M21.5 29C20.1193 29 19 27.8807 19 26.5C19 25.1193 20.1193 24 21.5 24C22.8807 24 24 25.1193 24 26.5C24 27.8807 22.8807 29 21.5 29Z" fill="#575757"/>
<path d="M21.5 5C20.1193 5 19 3.88071 19 2.5C19 1.11929 20.1193 0 21.5 0C22.8807 0 24 1.11929 24 2.5C24 3.88071 22.8807 5 21.5 5Z" fill="#575757"/>
<path d="M29.5 29C28.1193 29 27 27.8807 27 26.5C27 25.1193 28.1193 24 29.5 24C30.8807 24 32 25.1193 32 26.5C32 27.8807 30.8807 29 29.5 29Z" fill="#575757"/>
<path d="M29.5 5C28.1193 5 27 3.88071 27 2.5C27 1.11929 28.1193 0 29.5 0C30.8807 0 32 1.11929 32 2.5C32 3.88071 30.8807 5 29.5 5Z" fill="#575757"/>
</svg>
