<svg width="41" height="31" viewBox="0 0 41 31" fill="none" xmlns="http://www.w3.org/2000/svg">
<path d="M38.5 6C37.1193 6 36 4.88071 36 3.5C36 2.11929 37.1193 1 38.5 1C39.8807 1 41 2.11929 41 3.5C41 4.88071 39.8807 6 38.5 6Z" fill="#575757"/>
<path d="M38.5 14C37.1193 14 36 12.8807 36 11.5C36 10.1193 37.1193 9 38.5 9C39.8807 9 41 10.1193 41 11.5C41 12.8807 39.8807 14 38.5 14Z" fill="#575757"/>
<path d="M38.5 22C37.1193 22 36 20.8807 36 19.5C36 18.1193 37.1193 17 38.5 17C39.8807 17 41 18.1193 41 19.5C41 20.8807 39.8807 22 38.5 22Z" fill="#575757"/>
<path d="M2.5 6C1.11929 6 0 4.88071 0 3.5C0 2.11929 1.11929 1 2.5 1C3.88071 1 5 2.11929 5 3.5C5 4.88071 3.88071 6 2.5 6Z" fill="#575757"/>
<path d="M2.5 14C1.11929 14 0 12.8807 0 11.5C0 10.1193 1.11929 9 2.5 9C3.88071 9 5 10.1193 5 11.5C5 12.8807 3.88071 14 2.5 14Z" fill="#575757"/>
<path d="M2.5 22C1.11929 22 0 20.8807 0 19.5C0 18.1193 1.11929 17 2.5 17C3.88071 17 5 18.1193 5 19.5C5 20.8807 3.88071 22 2.5 22Z" fill="#575757"/>
<path d="M15 28.5C15 29.8807 13.8807 31 12.5 31C11.1193 31 10 29.8807 10 28.5C10 27.1193 11.1193 26 12.5 26C13.8807 26 15 27.1193 15 28.5Z" fill="#575757"/>
<path d="M23 28.5C23 29.8807 21.8807 31 20.5 31C19.1193 31 18 29.8807 18 28.5C18 27.1193 19.1193 26 20.5 26C21.8807 26 23 27.1193 23 28.5Z" fill="#575757"/>
<path d="M31 28.5C31 29.8807 29.8807 31 28.5 31C27.1193 31 26 29.8807 26 28.5C26 27.1193 27.1193 26 28.5 26C29.8807 26 31 27.1193 31 28.5Z" fill="#575757"/>
<rect x="7" width="3" height="24" fill="black"/>
<rect x="31" width="3" height="24" fill="black"/>
<rect x="34" y="21" width="3" height="27" transform="rotate(90 34 21)" fill="black"/>
</svg>
