<svg width="31" height="23" viewBox="0 0 31 23" fill="none" xmlns="http://www.w3.org/2000/svg">
<path d="M-1.09278e-07 13.2448C-1.69631e-07 11.8641 1.11929 10.7448 2.5 10.7448C3.88071 10.7448 5 11.8641 5 13.2448C5 14.6255 3.88071 15.7448 2.5 15.7448C1.11929 15.7448 -4.89256e-08 14.6255 -1.09278e-07 13.2448Z" fill="#575757"/>
<path d="M-1.09278e-07 19.5C-1.69631e-07 18.1193 1.11929 17 2.5 17C3.88071 17 5 18.1193 5 19.5C5 20.8807 3.88071 22 2.5 22C1.11929 22 -4.89256e-08 20.8807 -1.09278e-07 19.5Z" fill="#575757"/>
<path d="M6.25516 13.2448C6.25516 11.8641 7.37445 10.7448 8.75516 10.7448C10.1359 10.7448 11.2552 11.8641 11.2552 13.2448C11.2552 14.6255 10.1359 15.7448 8.75516 15.7448C7.37445 15.7448 6.25516 14.6255 6.25516 13.2448Z" fill="#575757"/>
<path d="M6.25516 19.5C6.25516 18.1193 7.37445 17 8.75516 17C10.1359 17 11.2552 18.1193 11.2552 19.5C11.2552 20.8807 10.1359 22 8.75516 22C7.37445 22 6.25516 20.8807 6.25516 19.5Z" fill="#575757"/>
<path d="M19 13.5C19 12.1193 20.1193 11 21.5 11C22.8807 11 24 12.1193 24 13.5C24 14.8807 22.8807 16 21.5 16C20.1193 16 19 14.8807 19 13.5Z" fill="#575757"/>
<path d="M19 19.7552C19 18.3745 20.1193 17.2552 21.5 17.2552C22.8807 17.2552 24 18.3745 24 19.7552C24 21.1359 22.8807 22.2552 21.5 22.2552C20.1193 22.2552 19 21.1359 19 19.7552Z" fill="#575757"/>
<path d="M25.2552 13.5C25.2552 12.1193 26.3744 11 27.7552 11C29.1359 11 30.2552 12.1193 30.2552 13.5C30.2552 14.8807 29.1359 16 27.7552 16C26.3744 16 25.2552 14.8807 25.2552 13.5Z" fill="#575757"/>
<path d="M25.2552 19.7552C25.2552 18.3745 26.3744 17.2552 27.7552 17.2552C29.1359 17.2552 30.2552 18.3745 30.2552 19.7552C30.2552 21.1359 29.1359 22.2552 27.7552 22.2552C26.3744 22.2552 25.2552 21.1359 25.2552 19.7552Z" fill="#575757"/>
<rect width="30" height="6" fill="black"/>
</svg>
