<svg width="30" height="25" viewBox="0 0 30 25" fill="none" xmlns="http://www.w3.org/2000/svg">
<path d="M9 10.5C9 9.11929 10.1193 8 11.5 8C12.8807 8 14 9.11929 14 10.5C14 11.8807 12.8807 13 11.5 13C10.1193 13 9 11.8807 9 10.5Z" fill="#575757"/>
<path d="M15 10.5C15 9.11929 16.1193 8 17.5 8C18.8807 8 20 9.11929 20 10.5C20 11.8807 18.8807 13 17.5 13C16.1193 13 15 11.8807 15 10.5Z" fill="#575757"/>
<path d="M6 16.5C6 15.1193 7.11929 14 8.5 14C9.88071 14 11 15.1193 11 16.5C11 17.8807 9.88071 19 8.5 19C7.11929 19 6 17.8807 6 16.5Z" fill="#575757"/>
<path d="M12 16.5C12 15.1193 13.1193 14 14.5 14C15.8807 14 17 15.1193 17 16.5C17 17.8807 15.8807 19 14.5 19C13.1193 19 12 17.8807 12 16.5Z" fill="#575757"/>
<path d="M18 16.5C18 15.1193 19.1193 14 20.5 14C21.8807 14 23 15.1193 23 16.5C23 17.8807 21.8807 19 20.5 19C19.1193 19 18 17.8807 18 16.5Z" fill="#575757"/>
<path d="M3 22.5C3 21.1193 4.11929 20 5.5 20C6.88071 20 8 21.1193 8 22.5C8 23.8807 6.88071 25 5.5 25C4.11929 25 3 23.8807 3 22.5Z" fill="#575757"/>
<path d="M9 22.5C9 21.1193 10.1193 20 11.5 20C12.8807 20 14 21.1193 14 22.5C14 23.8807 12.8807 25 11.5 25C10.1193 25 9 23.8807 9 22.5Z" fill="#575757"/>
<path d="M15 22.5C15 21.1193 16.1193 20 17.5 20C18.8807 20 20 21.1193 20 22.5C20 23.8807 18.8807 25 17.5 25C16.1193 25 15 23.8807 15 22.5Z" fill="#575757"/>
<path d="M21 22.5C21 21.1193 22.1193 20 23.5 20C24.8807 20 26 21.1193 26 22.5C26 23.8807 24.8807 25 23.5 25C22.1193 25 21 23.8807 21 22.5Z" fill="#575757"/>
<rect width="30" height="6" fill="black"/>
</svg>
