<svg width="41" height="31" viewBox="0 0 41 31" fill="none" xmlns="http://www.w3.org/2000/svg">
<path d="M38.5 6C37.1193 6 36 4.88071 36 3.5C36 2.11929 37.1193 1 38.5 1C39.8807 1 41 2.11929 41 3.5C41 4.88071 39.8807 6 38.5 6Z" fill="#575757"/>
<path d="M38.5 14C37.1193 14 36 12.8807 36 11.5C36 10.1193 37.1193 9 38.5 9C39.8807 9 41 10.1193 41 11.5C41 12.8807 39.8807 14 38.5 14Z" fill="#575757"/>
<path d="M38.5 22C37.1193 22 36 20.8807 36 19.5C36 18.1193 37.1193 17 38.5 17C39.8807 17 41 18.1193 41 19.5C41 20.8807 39.8807 22 38.5 22Z" fill="#575757"/>
<path d="M2.5 6C1.11929 6 0 4.88071 0 3.5C0 2.11929 1.11929 1 2.5 1C3.88071 1 5 2.11929 5 3.5C5 4.88071 3.88071 6 2.5 6Z" fill="#575757"/>
<path d="M2.5 14C1.11929 14 0 12.8807 0 11.5C0 10.1193 1.11929 9 2.5 9C3.88071 9 5 10.1193 5 11.5C5 12.8807 3.88071 14 2.5 14Z" fill="#575757"/>
<path d="M2.5 22C1.11929 22 0 20.8807 0 19.5C0 18.1193 1.11929 17 2.5 17C3.88071 17 5 18.1193 5 19.5C5 20.8807 3.88071 22 2.5 22Z" fill="#575757"/>
<path d="M14 28.5C14 29.8807 12.8807 31 11.5 31C10.1193 31 9 29.8807 9 28.5C9 27.1193 10.1193 26 11.5 26C12.8807 26 14 27.1193 14 28.5Z" fill="#575757"/>
<path d="M22 28.5C22 29.8807 20.8807 31 19.5 31C18.1193 31 17 29.8807 17 28.5C17 27.1193 18.1193 26 19.5 26C20.8807 26 22 27.1193 22 28.5Z" fill="#575757"/>
<path d="M30 28.5C30 29.8807 28.8807 31 27.5 31C26.1193 31 25 29.8807 25 28.5C25 27.1193 26.1193 26 27.5 26C28.8807 26 30 27.1193 30 28.5Z" fill="#575757"/>
<rect x="7" width="4" height="24" fill="black"/>
<rect x="30" width="4" height="24" fill="black"/>
<rect x="33" y="20" width="4" height="26" transform="rotate(90 33 20)" fill="black"/>
</svg>
