<svg width="33" height="32" viewBox="0 0 33 32" fill="none" xmlns="http://www.w3.org/2000/svg">
<path d="M28.5531 0H4.44685C1.99097 0 0 1.93055 0 4.31206V27.6878C0 30.0693 1.99089 31.9998 4.44685 31.9998H16.3359L16.3562 20.5648H13.2925C12.8944 20.5648 12.5712 20.2526 12.5697 19.8666L12.555 16.1806C12.5535 15.7924 12.8776 15.4769 13.2779 15.4769H16.336V11.9153C16.336 7.78215 18.9392 5.53159 22.7415 5.53159H25.8616C26.2608 5.53159 26.5845 5.84542 26.5845 6.23259V9.34063C26.5845 9.72764 26.2611 10.0414 25.862 10.0416L23.9473 10.0425C21.8794 10.0425 21.479 10.9953 21.479 12.3936V15.477H26.0228C26.4557 15.477 26.7916 15.8436 26.7406 16.2605L26.2901 19.9465C26.2469 20.2992 25.9385 20.565 25.5722 20.565H21.4993L21.479 32H28.5532C31.0091 32 33 30.0695 33 27.688V4.31206C32.9999 1.93055 31.009 0 28.5531 0Z" fill="#329494"/>
</svg>
