<svg width="33" height="34" viewBox="0 0 33 34" fill="none" xmlns="http://www.w3.org/2000/svg">
<g clip-path="url(#clip0)">
<path d="M22.6875 0.5H10.3125C4.61794 0.5 0 5.11794 0 10.8125V23.1875C0 28.8821 4.61794 33.5 10.3125 33.5H22.6875C28.3821 33.5 33 28.8821 33 23.1875V10.8125C33 5.11794 28.3821 0.5 22.6875 0.5ZM29.9062 23.1875C29.9062 27.1681 26.6681 30.4062 22.6875 30.4062H10.3125C6.33188 30.4062 3.09375 27.1681 3.09375 23.1875V10.8125C3.09375 6.83188 6.33188 3.59375 10.3125 3.59375H22.6875C26.6681 3.59375 29.9062 6.83188 29.9062 10.8125V23.1875Z" fill="#329494"/>
<path d="M16.5 8.75C11.9439 8.75 8.25 12.4439 8.25 17C8.25 21.5561 11.9439 25.25 16.5 25.25C21.0561 25.25 24.75 21.5561 24.75 17C24.75 12.4439 21.0561 8.75 16.5 8.75ZM16.5 22.1562C13.6579 22.1562 11.3438 19.8421 11.3438 17C11.3438 14.1558 13.6579 11.8438 16.5 11.8438C19.3421 11.8438 21.6562 14.1558 21.6562 17C21.6562 19.8421 19.3421 22.1562 16.5 22.1562Z" fill="#329494"/>
<path d="M25.3688 9.22987C25.976 9.22987 26.4682 8.73769 26.4682 8.13056C26.4682 7.52343 25.976 7.03125 25.3688 7.03125C24.7617 7.03125 24.2695 7.52343 24.2695 8.13056C24.2695 8.73769 24.7617 9.22987 25.3688 9.22987Z" fill="#329494"/>
</g>
<defs>
<clipPath id="clip0">
<rect width="33" height="33" fill="white" transform="translate(0 0.5)"/>
</clipPath>
</defs>
</svg>
