<svg width="22" height="20" viewBox="0 0 22 20" fill="none" xmlns="http://www.w3.org/2000/svg">
<path d="M21.4107 3.55469H0.589286C0.263853 3.55469 0 3.29233 0 2.96875V1.40625C0 1.08267 0.263853 0.820312 0.589286 0.820312H21.4107C21.7361 0.820312 22 1.08267 22 1.40625V2.96875C22 3.29233 21.7361 3.55469 21.4107 3.55469ZM21.4107 11.3672H0.589286C0.263853 11.3672 0 11.1048 0 10.7812V9.21875C0 8.89517 0.263853 8.63281 0.589286 8.63281H21.4107C21.7361 8.63281 22 8.89517 22 9.21875V10.7812C22 11.1048 21.7361 11.3672 21.4107 11.3672ZM21.4107 19.1797H0.589286C0.263853 19.1797 0 18.9173 0 18.5938V17.0312C0 16.7077 0.263853 16.4453 0.589286 16.4453H21.4107C21.7361 16.4453 22 16.7077 22 17.0312V18.5938C22 18.9173 21.7361 19.1797 21.4107 19.1797Z" fill="#329494"/>
</svg>
