<svg width="22" height="22" viewBox="0 0 22 22" fill="none" xmlns="http://www.w3.org/2000/svg">
<path d="M11.9941 22C15.3782 22 18.4816 20.4615 20.5382 17.9276C21.7529 16.431 20.4283 14.2443 18.551 14.6018C15.0126 15.2757 11.7502 12.5708 11.7502 8.98184C11.7502 6.90112 12.87 5.01617 14.6478 4.00452C16.3126 3.05705 15.8938 0.533156 14.0023 0.183777C13.3399 0.0616235 12.6677 0.000109842 11.9941 0C5.92008 0 0.994141 4.92314 0.994141 11C0.994141 17.0741 5.91733 22 11.9941 22ZM11.9941 2.0625C12.5521 2.0625 13.098 2.11411 13.6276 2.21195C11.2747 3.55098 9.68771 6.08094 9.68771 8.98184C9.68771 13.8737 14.141 17.5412 18.9368 16.6279C17.2982 18.6469 14.797 19.9375 11.9941 19.9375C7.0581 19.9375 3.05664 15.936 3.05664 11C3.05664 6.06396 7.0581 2.0625 11.9941 2.0625Z" fill="#329494"/>
</svg>
