<svg width="47" height="46" viewBox="0 0 47 46" fill="none" xmlns="http://www.w3.org/2000/svg">
<g clip-path="url(#clip0)">
<path d="M46.0316 11.9576C45.4898 9.98703 43.9024 8.43372 41.8893 7.90309C38.2114 6.91797 23.4995 6.91797 23.4995 6.91797C23.4995 6.91797 8.78808 6.91797 5.11012 7.86554C3.13578 8.39582 1.50962 9.98738 0.967808 11.9576C0 15.557 0 23.0217 0 23.0217C0 23.0217 0 30.524 0.967808 34.0858C1.50998 36.056 3.09706 37.6097 5.11048 38.1403C8.82681 39.1254 23.4999 39.1254 23.4999 39.1254C23.4999 39.1254 38.2114 39.1254 41.8893 38.1778C43.9027 37.6476 45.4898 36.0939 46.032 34.1237C46.9998 30.524 46.9998 23.0596 46.9998 23.0596C46.9998 23.0596 47.0385 15.557 46.0316 11.9576Z" fill="#329494"/>
<path d="M18.8154 29.9174L31.0492 23.0212L18.8154 16.125V29.9174Z" fill="#F7F7F7"/>
</g>
<defs>
<clipPath id="clip0">
<rect width="47" height="46" fill="white"/>
</clipPath>
</defs>
</svg>
