<svg width="138" height="32" viewBox="0 0 138 32" fill="none" xmlns="http://www.w3.org/2000/svg">
<g clip-path="url(#clip0)">
<path d="M0.552576 16.0251C0.552576 12.183 0.548243 8.34104 0.554576 4.49869C0.557909 2.17552 1.81524 0.880149 4.15124 0.875508C11.8769 0.858598 19.6022 0.860256 27.3276 0.874181C29.6602 0.877828 30.9652 2.14104 30.9766 4.46819C31.0122 11.9957 31.0096 19.5229 31.0169 27.0504C31.0172 27.4244 30.9949 27.8017 30.9402 28.1704C30.6592 30.0649 29.4966 31.1298 27.5652 31.1391C21.6302 31.168 15.6946 31.1584 9.75924 31.1633C7.84358 31.165 5.92758 31.1696 4.01191 31.161C1.85058 31.1537 0.544243 29.8673 0.540576 27.7387C0.533909 23.8337 0.538909 19.9301 0.538909 16.0251H0.552576Z" fill="#329494"/>
<path d="M48.5542 24.5762C48.4232 24.2748 48.3105 23.9569 48.2162 23.622C48.1219 23.2881 48.0542 22.9456 48.0135 22.5945C47.6445 23.2387 47.1569 23.7732 46.5502 24.1969C45.9439 24.6206 45.2222 24.8331 44.3862 24.8331C42.9925 24.8331 41.9185 24.4771 41.1645 23.7629C40.4102 23.0497 40.0332 22.0773 40.0332 20.8462C40.0332 19.5489 40.5349 18.545 41.5395 17.8308C42.5435 17.1173 44.0089 16.7605 45.9355 16.7605H47.9519V15.7092C47.9519 15.073 47.7839 14.5799 47.4479 14.2288C47.1115 13.8787 46.6115 13.703 45.9475 13.703C45.3655 13.703 44.9165 13.8436 44.6012 14.125C44.2852 14.4062 44.1279 14.7918 44.1279 15.2808H40.6729L40.6482 15.2076C40.5909 14.0906 41.0805 13.1267 42.1179 12.3148C43.1545 11.5038 44.5095 11.0977 46.1819 11.0977C47.7802 11.0977 49.0732 11.4972 50.0612 12.2965C51.0492 13.0959 51.5432 14.2411 51.5432 15.7331V21.2007C51.5432 21.8197 51.5902 22.4035 51.6845 22.9493C51.7785 23.4953 51.9282 24.0378 52.1335 24.5759H48.5549V24.5762H48.5542ZM45.2715 22.1913C45.8942 22.1913 46.4522 22.0368 46.9439 21.7265C47.4359 21.4165 47.7719 21.0584 47.9522 20.6503V18.779H45.9359C45.1732 18.779 44.5972 18.9664 44.2079 19.341C43.8182 19.7163 43.6239 20.1772 43.6239 20.7236C43.6239 21.1722 43.7695 21.5286 44.0605 21.7935C44.3509 22.0587 44.7549 22.1913 45.2715 22.1913Z" fill="#329494"/>
<path d="M66.2364 18.3261C66.2364 20.2995 65.794 21.8774 64.9084 23.0593C64.0227 24.242 62.744 24.8328 61.072 24.8328C60.2934 24.8328 59.6147 24.6697 59.037 24.3434C58.4594 24.0178 57.9694 23.5404 57.5677 22.9125L57.2723 24.5762H54.2354V5.49609H57.8137V12.7488C58.1987 12.2193 58.66 11.8115 59.197 11.526C59.7337 11.2409 60.3504 11.098 61.0474 11.098C62.736 11.098 64.023 11.7322 64.9084 12.9998C65.794 14.2676 66.2364 15.9575 66.2364 18.0695V18.3261ZM62.6584 18.0692C62.6584 16.7811 62.4677 15.7596 62.0864 15.0053C61.7054 14.2517 61.0554 13.8744 60.1374 13.8744C59.58 13.8744 59.1087 13.9904 58.7234 14.2228C58.338 14.4556 58.035 14.7875 57.8137 15.2195V20.821C58.0354 21.2212 58.3404 21.5269 58.7297 21.7384C59.119 21.951 59.5967 22.0564 60.1623 22.0564C61.0887 22.0564 61.7364 21.7321 62.1054 21.0836C62.474 20.4354 62.6587 19.5164 62.6587 18.3261V18.0692H62.6584Z" fill="#329494"/>
<path d="M74.0083 22.0932C74.631 22.0932 75.127 21.9082 75.496 21.5369C75.865 21.1659 76.0493 20.6702 76.0493 20.0509H79.3203L79.3443 20.1241C79.3773 21.4616 78.877 22.5813 77.844 23.4814C76.8113 24.3826 75.5323 24.8328 74.0076 24.8328C72.0403 24.8328 70.5196 24.2075 69.446 22.9552C68.3716 21.704 67.835 20.1039 67.835 18.155V17.788C67.835 15.8475 68.3696 14.2474 69.4396 12.9875C70.5096 11.7276 72.024 11.0977 73.9836 11.0977C75.6056 11.0977 76.9143 11.5625 77.9056 12.4918C78.8983 13.4212 79.3773 14.6446 79.3443 16.1611L79.3203 16.2344H76.0493C76.0493 15.5497 75.867 14.9811 75.5023 14.5282C75.137 14.0753 74.631 13.8492 73.9836 13.8492C73.0573 13.8492 72.399 14.2182 72.0096 14.9562C71.6203 15.6943 71.4256 16.6375 71.4256 17.7877V18.1547C71.4256 19.3287 71.6203 20.279 72.0096 21.0044C72.3993 21.7305 73.0653 22.0932 74.0083 22.0932Z" fill="#329494"/>
<path d="M15.8363 0.722656L3.47459 0.776367C3.47459 0.776367 0.144927 0.726966 0.55326 4.93501C0.550594 9.28496 0.55226 14.7217 0.55226 14.7217C0.55226 14.7217 10.0576 12.689 15.7766 14.7217C21.4956 16.7545 31.0049 14.2019 31.0049 14.2019L31.0163 3.94235C31.0163 3.94235 31.1966 0.745865 27.5349 0.736913C23.8729 0.728293 15.8363 0.722656 15.8363 0.722656Z" fill="#329494"/>
<path d="M7.70117 12.7072L12.2838 8.11719H19.0922L23.8362 12.8371V24.2882L19.0922 19.7036V12.7065H12.4158L12.4125 19.7036H18.7698L14.2842 24.2936H12.4158L7.70117 19.5759V12.7072Z" fill="white"/>
<mask id="mask0" mask-type="alpha" maskUnits="userSpaceOnUse" x="14" y="8" width="6" height="5">
<path d="M19.0924 8.11719H14.6641V12.7068H19.0924V8.11719Z" fill="url(#paint0_linear)"/>
</mask>
<g mask="url(#mask0)">
<path d="M19.0924 8.11719H14.6641V12.7068H19.0924V8.11719Z" fill="url(#paint1_linear)"/>
</g>
<mask id="mask1" mask-type="alpha" maskUnits="userSpaceOnUse" x="7" y="12" width="6" height="6">
<path d="M12.4155 12.707H7.70117V17.1001H12.4155V12.707Z" fill="url(#paint2_linear)"/>
</mask>
<g mask="url(#mask1)">
<path d="M12.4155 12.707H7.70117V17.1001H12.4155V12.707Z" fill="url(#paint3_linear)"/>
</g>
<mask id="mask2" mask-type="alpha" maskUnits="userSpaceOnUse" x="12" y="19" width="5" height="6">
<path d="M16.843 19.7031H12.415V24.2924H16.843V19.7031Z" fill="url(#paint4_linear)"/>
</mask>
<g mask="url(#mask2)">
<path d="M16.843 19.7031H12.415V24.2924H16.843V19.7031Z" fill="url(#paint5_linear)"/>
</g>
<path d="M88.2302 21.7477C88.2302 21.385 88.1029 21.0935 87.8492 20.8734C87.5959 20.6532 87.1492 20.446 86.5112 20.252C85.4179 19.9235 84.5882 19.5376 84.0212 19.0929C83.4546 18.648 83.1719 18.0419 83.1719 17.2734C83.1719 16.5006 83.4909 15.8696 84.1289 15.3796C84.7669 14.8895 85.5802 14.6445 86.5696 14.6445C87.6199 14.6445 88.4656 14.9081 89.1056 15.4346C89.7456 15.9615 90.0549 16.6521 90.0326 17.5065L90.0202 17.5453H88.1779C88.1779 17.0748 88.0346 16.7131 87.7479 16.4611C87.4619 16.2081 87.0602 16.0821 86.5439 16.0821C86.0749 16.0821 85.7129 16.1942 85.4566 16.4183C85.2006 16.6428 85.0726 16.9302 85.0726 17.28C85.0726 17.5993 85.2112 17.8619 85.4892 18.0668C85.7669 18.272 86.2462 18.4889 86.9279 18.718C87.9699 19.0117 88.7636 19.3943 89.3106 19.8668C89.8579 20.3399 90.1309 20.9629 90.1309 21.7351C90.1309 22.5421 89.8146 23.1793 89.1806 23.6458C88.5472 24.1116 87.7092 24.3444 86.6679 24.3444C85.6479 24.3444 84.7722 24.0914 84.0409 23.5871C83.3096 23.0818 82.9545 22.6969 82.9765 21.6953L82.9895 21.6568L84.8319 21.2885C84.8319 21.8458 84.9969 22.2556 85.3266 22.5189C85.6566 22.7824 86.1032 22.9137 86.6676 22.9137C87.1752 22.9137 87.5626 22.808 87.8296 22.5968C88.0976 22.3852 88.2302 22.1014 88.2302 21.7477Z" fill="#329494"/>
<path d="M96.4724 22.1758H93.3997L92.7617 24.2089H90.7764L93.9727 14.7812H95.919L99.1027 24.2089H97.1174L96.4724 22.1758ZM93.8687 20.6928H96.0107L94.9624 17.371H94.923L93.8687 20.6928Z" fill="#329494"/>
<path d="M101.914 22.7587H106.158V24.2089H100.013V14.7812H101.913V22.7587H101.914Z" fill="#329494"/>
<path d="M109.322 22.7587H113.566V24.2089H107.421V14.7812H109.322V22.7587H109.322Z" fill="#329494"/>
<path d="M120.246 20.0648H116.731V22.759H120.91V24.2096H114.83V14.7812H120.897V16.2381H116.731V18.608H120.246V20.0648Z" fill="#329494"/>
<path d="M127.186 21.7477C127.186 21.385 127.059 21.0935 126.805 20.8734C126.551 20.6532 126.105 20.446 125.468 20.252C124.374 19.9235 123.544 19.5376 122.978 19.0929C122.411 18.648 122.128 18.0419 122.128 17.2734C122.128 16.5006 122.446 15.8696 123.085 15.3796C123.723 14.8895 124.536 14.6445 125.526 14.6445C126.576 14.6445 127.422 14.9081 128.061 15.4346C128.702 15.9615 129.011 16.6521 128.989 17.5065L128.976 17.5453H127.134C127.134 17.0748 126.99 16.7131 126.704 16.4611C126.418 16.2081 126.017 16.0821 125.5 16.0821C125.031 16.0821 124.669 16.1942 124.413 16.4183C124.156 16.6428 124.029 16.9302 124.029 17.28C124.029 17.5993 124.168 17.8619 124.445 18.0668C124.723 18.272 125.203 18.4889 125.884 18.718C126.925 19.0117 127.72 19.3943 128.266 19.8668C128.814 20.3399 129.086 20.9629 129.086 21.7351C129.086 22.5421 128.77 23.1793 128.136 23.6458C127.503 24.1116 126.665 24.3444 125.624 24.3444C124.604 24.3444 123.728 24.0914 122.997 23.5871C122.265 23.0818 121.91 22.3286 121.933 21.3269L121.946 21.2885H123.788C123.788 21.8458 123.953 22.2556 124.283 22.5189C124.612 22.7824 125.06 22.9137 125.623 22.9137C126.131 22.9137 126.518 22.808 126.785 22.5968C127.054 22.3852 127.186 22.1014 127.186 21.7477Z" fill="#329494"/>
</g>
<defs>
<linearGradient id="paint0_linear" x1="14.6659" y1="10.4086" x2="19.1114" y2="10.4086" gradientUnits="userSpaceOnUse">
<stop/>
<stop offset="1" stop-color="white"/>
</linearGradient>
<linearGradient id="paint1_linear" x1="14.6659" y1="10.4086" x2="19.1114" y2="10.4086" gradientUnits="userSpaceOnUse">
<stop stop-color="white"/>
<stop offset="1" stop-color="#DCDCDB"/>
</linearGradient>
<linearGradient id="paint2_linear" x1="10.0582" y1="17.0866" x2="10.0582" y2="12.711" gradientUnits="userSpaceOnUse">
<stop/>
<stop offset="1" stop-color="white"/>
</linearGradient>
<linearGradient id="paint3_linear" x1="10.0685" y1="17.0865" x2="10.0685" y2="12.7109" gradientUnits="userSpaceOnUse">
<stop stop-color="white"/>
<stop offset="1" stop-color="#DCDCDC"/>
</linearGradient>
<linearGradient id="paint4_linear" x1="16.8475" y1="21.9961" x2="12.4142" y2="21.9961" gradientUnits="userSpaceOnUse">
<stop/>
<stop offset="1" stop-color="white"/>
</linearGradient>
<linearGradient id="paint5_linear" x1="16.8475" y1="21.9961" x2="12.4142" y2="21.9961" gradientUnits="userSpaceOnUse">
<stop stop-color="white"/>
<stop offset="1" stop-color="#DCDCDC"/>
</linearGradient>
<clipPath id="clip0">
<rect width="138" height="31" fill="white" transform="translate(0 0.5)"/>
</clipPath>
</defs>
</svg>
