<svg class="svgChecked" width="31" height="20" viewBox="0 0 31 20" fill="black" xmlns="http://www.w3.org/2000/svg">
<g clip-path="url(#clip0)">
<path d="M22.0346 20.0002C21.0985 20.0002 20.3397 19.2413 20.3397 18.3053C20.3397 17.3692 21.0985 16.6104 22.0346 16.6104C22.9707 16.6104 23.7295 17.3692 23.7295 18.3053C23.7295 19.2413 22.9707 20.0002 22.0346 20.0002Z" fill="black"/>
<path d="M17.6283 20.0002C16.6923 20.0002 15.9334 19.2413 15.9334 18.3053C15.9334 17.3692 16.6923 16.6104 17.6283 16.6104C18.5644 16.6104 19.3232 17.3692 19.3232 18.3053C19.3232 19.2413 18.5644 20.0002 17.6283 20.0002Z" fill="black"/>
<path d="M13.2211 20.0002C12.285 20.0002 11.5262 19.2413 11.5262 18.3053C11.5262 17.3692 12.285 16.6104 13.2211 16.6104C14.1572 16.6104 14.916 17.3692 14.916 18.3053C14.916 19.2413 14.1572 20.0002 13.2211 20.0002Z" fill="black"/>
<path d="M8.81388 20.0002C7.8778 20.0002 7.11896 19.2413 7.11896 18.3053C7.11896 17.3692 7.8778 16.6104 8.81388 16.6104C9.74995 16.6104 10.5088 17.3692 10.5088 18.3053C10.5088 19.2413 9.74995 20.0002 8.81388 20.0002Z" fill="black"/>
<path d="M3.39081 10.1695C3.39081 11.1056 2.63197 11.8644 1.69589 11.8644C0.759816 11.8644 0.000976562 11.1056 0.000976562 10.1695C0.000976562 9.23345 0.759816 8.47461 1.69589 8.47461C2.63197 8.47461 3.39081 9.23345 3.39081 10.1695Z" fill="black"/>
<path d="M30.1701 10.1695C30.1701 11.1056 29.4113 11.8644 28.4752 11.8644C27.5391 11.8644 26.7803 11.1056 26.7803 10.1695C26.7803 9.23345 27.5391 8.47461 28.4752 8.47461C29.4113 8.47461 30.1701 9.23345 30.1701 10.1695Z" fill="black"/>
<path d="M4 4H26V16H4V4Z" fill="black"/>
<path d="M21.6947 3.38983C20.7587 3.38983 19.9998 2.63099 19.9998 1.69492C19.9998 0.758839 20.7587 0 21.6947 0C22.6308 0 23.3896 0.758839 23.3896 1.69492C23.3896 2.63099 22.6308 3.38983 21.6947 3.38983Z" fill="black"/>
<path d="M17.2885 3.38983C16.3524 3.38983 15.5936 2.63099 15.5936 1.69492C15.5936 0.758839 16.3524 0 17.2885 0C18.2246 0 18.9834 0.758839 18.9834 1.69492C18.9834 2.63099 18.2246 3.38983 17.2885 3.38983Z" fill="black"/>
<path d="M12.8813 3.38983C11.9452 3.38983 11.1863 2.63099 11.1863 1.69492C11.1863 0.758839 11.9452 0 12.8813 0C13.8173 0 14.5762 0.758839 14.5762 1.69492C14.5762 2.63099 13.8173 3.38983 12.8813 3.38983Z" fill="black"/>
<path d="M8.47499 3.38983C7.53891 3.38983 6.78007 2.63099 6.78007 1.69492C6.78007 0.758839 7.53891 0 8.47499 0C9.41108 0 10.1699 0.758839 10.1699 1.69492C10.1699 2.63099 9.41108 3.38983 8.47499 3.38983Z" fill="black"/>
</g>
<defs>
<clipPath id="clip0">
<rect width="30.1695" height="20" fill="white" transform="matrix(-1 0 0 1 30.1699 0)"/>
</clipPath>
</defs>
</svg>
