<svg width="38" height="32" viewBox="0 0 38 32" fill="none" xmlns="http://www.w3.org/2000/svg">
<path d="M37.3956 3.72259C36.5513 4.10161 35.6749 4.40063 34.7756 4.61711C35.7665 3.66378 36.5116 2.47138 36.9319 1.14044C37.0519 0.760482 36.6443 0.431921 36.3054 0.635361C35.0542 1.38665 33.7066 1.95026 32.2997 2.31071C32.2181 2.33163 32.1339 2.34223 32.0494 2.34223C31.7931 2.34223 31.544 2.2459 31.348 2.07107C29.8512 0.735533 27.9261 0 25.9274 0C25.0625 0 24.1893 0.13647 23.332 0.405659C20.6756 1.23977 18.6259 3.45809 17.9828 6.195C17.7416 7.22158 17.6763 8.24909 17.7886 9.24894C17.8014 9.36384 17.7478 9.44403 17.7147 9.48164C17.6566 9.54758 17.5743 9.58538 17.4887 9.58538C17.4792 9.58538 17.4694 9.58491 17.4597 9.58397C11.6449 9.03706 6.40138 6.20101 2.695 1.59834C2.506 1.36358 2.14356 1.39237 1.99292 1.65396C1.26711 2.91456 0.883551 4.35636 0.883551 5.82349C0.883551 8.07192 1.77584 10.1908 3.32575 11.7355C2.67397 11.5791 2.04313 11.3327 1.45713 11.0032C1.17363 10.8437 0.824812 11.0487 0.820828 11.3769C0.780248 14.7171 2.71196 17.6893 5.60572 19.0276C5.54745 19.029 5.48917 19.0297 5.4308 19.0297C4.9721 19.0297 4.50766 18.9849 4.05053 18.8964C3.73127 18.8347 3.46305 19.1413 3.56219 19.4547C4.50145 22.4233 7.02629 24.6116 10.0477 25.1084C7.54012 26.8125 4.61995 27.7115 1.58063 27.7115L0.633124 27.7109C0.34119 27.7109 0.0942832 27.9035 0.0198869 28.1898C-0.0533976 28.4717 0.0815904 28.7692 0.330535 28.9158C3.75536 30.9336 7.66186 32 11.6294 32C15.1023 32 18.3509 31.3023 21.2851 29.9263C23.9749 28.6649 26.3519 26.8617 28.35 24.5668C30.2113 22.4291 31.6668 19.9613 32.6759 17.232C33.6378 14.6305 34.1463 11.8545 34.1463 9.20429V9.07805C34.1462 8.6525 34.3363 8.25209 34.668 7.97953C35.9266 6.94498 37.0226 5.72716 37.9255 4.35992C38.1639 3.99891 37.7879 3.54645 37.3956 3.72259Z" fill="#329494"/>
</svg>
