<svg width="20" height="22" viewBox="0 0 20 22" fill="none" xmlns="http://www.w3.org/2000/svg">
<path d="M14 13.0625C12.7188 13.0625 12.1027 13.75 10 13.75C7.89732 13.75 7.28571 13.0625 6 13.0625C2.6875 13.0625 0 15.6492 0 18.8375V19.9375C0 21.0762 0.959821 22 2.14286 22H17.8571C19.0402 22 20 21.0762 20 19.9375V18.8375C20 15.6492 17.3125 13.0625 14 13.0625ZM17.8571 19.9375H2.14286V18.8375C2.14286 16.7922 3.875 15.125 6 15.125C6.65179 15.125 7.70982 15.8125 10 15.8125C12.308 15.8125 13.3438 15.125 14 15.125C16.125 15.125 17.8571 16.7922 17.8571 18.8375V19.9375ZM10 12.375C13.5491 12.375 16.4286 9.60352 16.4286 6.1875C16.4286 2.77148 13.5491 0 10 0C6.45089 0 3.57143 2.77148 3.57143 6.1875C3.57143 9.60352 6.45089 12.375 10 12.375ZM10 2.0625C12.3616 2.0625 14.2857 3.91445 14.2857 6.1875C14.2857 8.46055 12.3616 10.3125 10 10.3125C7.63839 10.3125 5.71429 8.46055 5.71429 6.1875C5.71429 3.91445 7.63839 2.0625 10 2.0625Z" fill="#329494"/>
</svg>
